<svg id="artwork" xmlns="http://www.w3.org/2000/svg" width="64" height="64" viewBox="0 0 64 64"><title>data</title><path d="M57.5,52V4A3.5,3.5,0,0,0,54,.5H10A3.5,3.5,0,0,0,6.5,4V60A3.5,3.5,0,0,0,10,63.5H46a1.524,1.524,0,0,0,1.061-.439l10-10A1.524,1.524,0,0,0,57.5,52Zm-48,8V4a.5.5,0,0,1,.5-.5H54a.5.5,0,0,1,.5.5V50.5H46A1.5,1.5,0,0,0,44.5,52v8.5H10A.5.5,0,0,1,9.5,60Zm42.879-6.5L47.5,58.379V53.5Z"/><path d="M40,54.5H14a1.5,1.5,0,0,0,0,3H40a1.5,1.5,0,0,0,0-3Z"/><path d="M42.5,8h-21a1.5,1.5,0,0,0,0,3h21a1.5,1.5,0,0,0,0-3Z"/><path d="M36.5,25.136,38.863,27.5h5.849A13.54,13.54,0,0,0,36.5,19.288Z" style="fill:#3e3ef4"/><path d="M47,30.5H38.318A6.532,6.532,0,1,1,33.5,25.682V17A1.5,1.5,0,0,0,32,15.5,16.5,16.5,0,1,0,48.5,32,1.5,1.5,0,0,0,47,30.5Z" style="fill:#3e3ef4"/><circle cx="32" cy="32" r="3.5" style="fill:#3e3ef4"/></svg>