<svg id="artwork" xmlns="http://www.w3.org/2000/svg" viewBox="0 0 512 512"><title>Data_Analysis</title><g id="Data_Analysis"><rect x="399.33" y="227.95" width="24.9" height="172.72" style="fill:#c6d0dc"/><polygon points="205.64 398.54 136.57 329.47 136.57 152.54 114.5 152.54 114.5 307.4 52.9 245.8 52.9 405.07 113.17 405.07 113.17 458.54 343.32 458.54 343.32 398.54 205.64 398.54" style="fill:#c6d0dc"/><polygon points="424.23 200.81 415.74 213.81 415.74 224.13 432.74 224.13 432.74 212.47 424.23 200.81" style="fill:#fff"/><rect x="414.51" y="366" width="19.43" height="19.71" style="fill:#f7c648"/><rect x="413.3" y="226.04" width="21.88" height="135.68" style="fill:#59aee4"/><path d="M424.23,139.13A27.33,27.33,0,0,0,396.9,111.8H385.15v-1.23H191.61a27.28,27.28,0,0,0-27.28,27.28v.05H136.41v297H357.24V407.57h27.91V157.13h39.08Z" style="fill:#fff"/><circle cx="226.03" cy="171.82" r="31.8" style="fill:#f7c648"/><path d="M76.27,241.7V380.59h138.9Zm28.17,64.5,38.27,38.26H104.44Z" style="fill:#ef835e"/><path d="M98.29,350.11H157L98.29,291.36Zm12-29.78,17.78,17.78H110.29Z"/><path d="M448.72,286.07v71.81h-7.55V212.32L424.23,186l-16.94,26.3V391.71h33.88V369.88h19.55V286.07Zm-19.55,93.64h-9.88v-9.83h9.88Zm0-21.83h-9.88V232h9.88Zm0-137.84h-9.88v-4.19l4.94-7.67,4.94,7.67Z"/><polygon points="331.49 223.97 297.53 257.93 284.87 245.27 246.76 283.38 234.75 271.37 195.53 310.59 204.02 319.08 234.75 288.34 246.76 300.35 284.87 262.24 297.53 274.9 339.44 233 339.37 247.23 351.37 247.29 351.53 212.06 316 211.9 315.94 223.9 331.49 223.97"/><rect x="194.23" y="327.21" width="161" height="12"/><path d="M226,209.62a37.8,37.8,0,1,0-37.81-37.8A37.84,37.84,0,0,0,226,209.62Zm0-63.6a25.8,25.8,0,1,1-25.81,25.8A25.84,25.84,0,0,1,226,146Z"/><rect x="274.74" y="153.23" width="41.24" height="12"/><rect x="274.74" y="176.56" width="41.24" height="12"/><path d="M430.23,137.9a33.37,33.37,0,0,0-33.33-33.34H191.62a33.32,33.32,0,0,0-32.74,27.33H130.41V272.62h12V143.9h15.92V314.64L70.9,227.21V386.59h87.43v27H351.24V428.9H142.41V406.53h-12V440.9H363.24V413.57h27.9V161.9h39.09ZM160.11,374.59h-8.39V361.71h-12v12.88h-8.3V361.71h-12v12.88h-8.3V361.71h-12v12.88H82.9V256.18L201.31,374.59h-29.2V361.71h-12Zm219,27H170.33v-15h59.95l-59.95-59.95V137.85a21.3,21.3,0,0,1,21.29-21.28H379.14ZM418.23,149.9H391.15V116.56h5.75a21.36,21.36,0,0,1,21.33,21.34Z"/></g></svg>