<?xml version="1.0" encoding="utf-8"?>
<!-- Generator: Adobe Illustrator 24.0.0, SVG Export Plug-In . SVG Version: 6.00 Build 0)  -->
<svg version="1.1" id="Layer_1" xmlns="http://www.w3.org/2000/svg" xmlns:xlink="http://www.w3.org/1999/xlink" x="0px" y="0px"
	 viewBox="0 0 256 256" enable-background="new 0 0 256 256" xml:space="preserve">
<g>
	<path fill="#CECECE" d="M32.035,206.905c-7.535,0-13.665-6.13-13.665-13.665V69.464c0-7.535,6.13-13.665,13.665-13.665h191.931
		c7.535,0,13.665,6.13,13.665,13.665V193.24c0,7.535-6.13,13.665-13.665,13.665H32.035z"/>
	<g>
		<path fill="#E2E2E2" d="M223.965,55.799h-14.667c7.534,0,13.665,6.13,13.665,13.665V193.24c0,7.534-6.13,13.665-13.665,13.665
			h14.667c7.535,0,13.665-6.13,13.665-13.665V69.464C237.63,61.929,231.5,55.799,223.965,55.799z"/>
	</g>
	<g>
		<path fill="#AFAFAF" d="M32.035,55.799h14.667c-7.534,0-13.665,6.13-13.665,13.665V193.24c0,7.534,6.13,13.665,13.665,13.665
			H32.035c-7.535,0-13.665-6.13-13.665-13.665V69.464C18.37,61.929,24.5,55.799,32.035,55.799z"/>
	</g>
	<path fill="#63BCE7" d="M229.221,69.488v123.728c0,2.916-2.364,5.28-5.28,5.28H32.059c-2.916,0-5.28-2.364-5.28-5.28V69.488
		c0-2.916,2.364-5.28,5.28-5.28h191.882C226.857,64.208,229.221,66.572,229.221,69.488z"/>
	<g>
		<path fill="#63E2E7" d="M223.941,64.208h-14.667c2.916,0,5.28,2.364,5.28,5.28v123.728c0,2.916-2.364,5.28-5.28,5.28h14.667
			c2.916,0,5.28-2.364,5.28-5.28V69.488C229.221,66.572,226.857,64.208,223.941,64.208z"/>
	</g>
	<g>
		<path fill="#6377E7" d="M32.059,64.208h14.667c-2.916,0-5.28,2.364-5.28,5.28v123.728c0,2.916,2.364,5.28,5.28,5.28H32.059
			c-2.916,0-5.28-2.364-5.28-5.28V69.488C26.779,66.572,29.143,64.208,32.059,64.208z"/>
	</g>
	<path fill="#CECECE" d="M128,206.905H8.667l3.053,7.024c2.751,6.329,8.995,10.423,15.896,10.423H128h100.385
		c6.901,0,13.145-4.094,15.896-10.423l3.053-7.024H128z"/>
	<g>
		<path fill="#E2E2E2" d="M232.667,206.905l-3.053,7.024c-2.751,6.329-8.995,10.423-15.896,10.423h14.667
			c6.901,0,13.145-4.094,15.896-10.423l3.053-7.024H232.667z"/>
	</g>
	<g>
		<path fill="#AFAFAF" d="M23.333,206.905l3.053,7.024c2.751,6.329,8.995,10.423,15.896,10.423H27.615
			c-6.901,0-13.145-4.094-15.896-10.423l-3.053-7.024H23.333z"/>
	</g>
	<path fill="#707070" d="M82.442,206.905l4.22,5.388c1.649,2.106,4.175,3.336,6.85,3.336h68.975c2.675,0,5.201-1.23,6.85-3.336
		l4.221-5.388H82.442z"/>
	<g>
		<path fill="#CECECE" d="M71.774,153.659c0,6.308,5.161,11.469,11.469,11.469h89.514c6.308,0,11.469-5.161,11.469-11.469v-53.118
			c0-6.308-5.161-11.469-11.469-11.469H83.243c-6.308,0-11.469,5.161-11.469,11.469V153.659z"/>
		<path fill="#F46275" d="M180.754,161.844c-2.071,2.023-4.891,3.284-7.997,3.284H83.243c-3.106,0-5.926-1.26-7.997-3.284
			L128,111.956L180.754,161.844z"/>
		<path fill="#F8AF23" d="M75.246,92.356c2.071-2.024,4.891-3.284,7.997-3.284h89.514c3.106,0,5.926,1.26,7.997,3.284L128,142.244
			L75.246,92.356z"/>
	</g>
	<path fill="#F8AF23" d="M193.308,165.325L193.308,165.325c-4.044,0-7.323,3.279-7.323,7.323v-3.33c0-4.032-3.154-7.491-7.186-7.565
		c-4.107-0.075-7.46,3.232-7.46,7.322v-3.193c0-4.044-3.279-7.323-7.323-7.323h0c-4.044,0-7.323,3.279-7.323,7.323v-28.189
		c0-4.044-3.279-7.323-7.323-7.323h0c-4.044,0-7.323,3.279-7.323,7.323v52.698l-9.025-9.025c-2.851-2.851-7.527-3.066-10.43-0.268
		c-2.957,2.851-2.99,7.56-0.098,10.452l16.693,16.693c1.831,1.831,2.86,4.315,2.86,6.904v9.204h51.742v-7.906l3.711-6.349
		c2.05-3.508,3.131-7.499,3.131-11.562v-25.887C200.631,168.604,197.352,165.325,193.308,165.325z"/>
	<circle fill="#CECECE" cx="68.406" cy="70.712" r="50.037"/>
	<g>
		<path fill="#AFAFAF" d="M33.036,70.712c0-25.143,18.546-45.948,42.703-49.497c-2.394-0.352-4.842-0.54-7.333-0.54
			c-27.635,0-50.037,22.402-50.037,50.037c0,27.635,22.402,50.037,50.037,50.037c2.492,0,4.939-0.188,7.333-0.54
			C51.583,116.659,33.036,95.854,33.036,70.712z"/>
	</g>
	<g>
		<circle fill="#F8AF23" cx="93.104" cy="69.484" r="10.006"/>
		<polygon fill="#F8AF23" points="83.747,93.002 60.343,80.721 60.343,58.237 83.747,45.956 		"/>
		<rect x="83.747" y="45.956" fill="#F46275" width="9.357" height="47.047"/>
		<rect x="40.66" y="58.237" fill="#CECECE" width="19.683" height="22.494"/>
		<rect x="28.888" y="63.853" fill="#F46275" width="11.772" height="11.252"/>
		<rect x="46.161" y="80.731" fill="#CECECE" width="8.682" height="17.596"/>
		<g>
			<path fill="#3F3679" d="M245.656,214.527l3.053-7.023c0.201-0.464,0.155-0.998-0.122-1.421c-0.276-0.422-0.748-0.677-1.254-0.677
				h-14.352c3.722-2.766,6.148-7.182,6.148-12.165V69.464c0-8.362-6.803-15.165-15.164-15.165H117.248
				c-6.871-20.392-26.162-35.125-48.842-35.125c-27.887,0-50.656,22.269-51.496,49.956c-0.024,0.108-0.04,124.11-0.04,124.11
				c0,4.983,2.427,9.399,6.148,12.165H8.667c-0.506,0-0.978,0.255-1.254,0.677c-0.277,0.423-0.323,0.957-0.122,1.421l3.053,7.023
				c1.517,3.491,4.013,6.351,7.081,8.325H9.32c-0.828,0-1.5,0.671-1.5,1.5s0.672,1.5,1.5,1.5h18.295h114.433h51.741h34.596h18.295
				c0.828,0,1.5-0.671,1.5-1.5s-0.672-1.5-1.5-1.5h-8.104C241.643,220.877,244.139,218.018,245.656,214.527z M223.966,57.299
				c6.707,0,12.164,5.457,12.164,12.165V193.24c0,6.708-5.457,12.165-12.164,12.165h-22.834c0.516-1.759,0.84-3.572,0.951-5.409
				h21.859c3.738,0,6.779-3.042,6.779-6.78V69.488c0-3.738-3.041-6.78-6.779-6.78H119.319c-0.288-1.838-0.679-3.64-1.157-5.409
				H223.966z M187.029,166.456c-0.689-2.102-2.115-3.865-3.955-4.969c1.714-2.25,2.651-4.979,2.651-7.827v-53.118
				c0-7.151-5.817-12.969-12.969-12.969h-55.661c1.836-5.287,2.847-10.957,2.847-16.861c0-1.688-0.087-3.356-0.247-5.003h104.245
				c2.084,0,3.779,1.696,3.779,3.78v123.728c0,2.084-1.695,3.78-3.779,3.78h-21.811v-24.348c0-4.865-3.958-8.823-8.823-8.823
				C190.854,163.825,188.63,164.833,187.029,166.456z M172.331,162.93c-1.217-3.417-4.484-5.871-8.314-5.871
				c-2.229,0-4.269,0.831-5.823,2.2v-16.685l18.847,17.823c-1.703,0.315-3.292,1.138-4.56,2.383
				C172.43,162.83,172.38,162.88,172.331,162.93z M121.435,192.611l4.385,4.385H32.059c-2.084,0-3.779-1.696-3.779-3.78v-90.217
				c9.455,11.727,23.926,19.249,40.127,19.249c0.626,0,1.247-0.025,1.868-0.047v31.458c0,7.151,5.817,12.969,12.969,12.969h57.305
				v20.142l-6.465-6.464c-3.472-3.473-9.095-3.602-12.531-0.287c-1.721,1.658-2.68,3.886-2.701,6.273
				S119.746,190.924,121.435,192.611z M115.958,90.572h56.799c2.143,0,4.125,0.686,5.753,1.842L128,140.179l-29.362-27.767
				C106.238,106.887,112.28,99.346,115.958,90.572z M96.101,114.141l13.703,12.959l-34.473,32.6
				c-1.285-1.678-2.057-3.769-2.057-6.04v-31.647C81.619,121.226,89.385,118.438,96.101,114.141z M140.548,137.693v25.935H83.243
				c-2.143,0-4.125-0.686-5.753-1.842l34.496-32.622l14.983,14.169c0.289,0.273,0.659,0.41,1.03,0.41s0.741-0.137,1.03-0.41
				l14.983-14.169l0.949,0.898C142.328,131.59,140.548,134.435,140.548,137.693z M148.165,128.962l-1.969-1.862l34.472-32.599
				c1.284,1.678,2.057,3.768,2.057,6.04v53.118c0,2.198-0.726,4.306-2.058,6.039l-22.474-21.253v-0.752
				c0-4.865-3.958-8.823-8.823-8.823C148.96,128.87,148.56,128.908,148.165,128.962z M68.406,22.175
				c26.764,0,48.537,21.773,48.537,48.537c0,26.764-21.773,48.537-48.537,48.537c-26.763,0-48.536-21.773-48.536-48.537
				C19.87,43.948,41.644,22.175,68.406,22.175z M19.87,193.24V88.023c1.381,3.859,3.211,7.503,5.425,10.877
				c-0.005,0.052-0.016,0.102-0.016,0.155v94.161c0,3.739,3.041,6.78,6.779,6.78h96.76l5.409,5.409H82.442H32.034
				C25.327,205.405,19.87,199.948,19.87,193.24z M137.228,208.405l0.899,0.899c1.318,1.318,2.129,3.004,2.352,4.824H93.513
				c-2.229,0-4.296-1.006-5.67-2.76l-2.32-2.963h51.646H137.228z M15.436,217.128h29.141c0.828,0,1.5-0.671,1.5-1.5
				s-0.672-1.5-1.5-1.5H13.478c-0.132-0.263-0.264-0.526-0.382-0.798l-2.142-4.925h21.08h49.678l3.769,4.813
				c1.946,2.485,4.874,3.911,8.031,3.911h47.035v5.724H27.615C22.828,222.852,18.395,220.695,15.436,217.128z M143.548,222.852
				v-7.704c0-3.008-1.172-5.837-3.3-7.965l-16.692-16.693c-1.114-1.114-1.72-2.595-1.705-4.17c0.014-1.576,0.647-3.046,1.783-4.142
				c2.269-2.188,6.005-2.074,8.328,0.249l9.025,9.025c0.43,0.43,1.075,0.559,1.635,0.325c0.561-0.232,0.926-0.779,0.926-1.386
				v-52.698c0-3.211,2.612-5.823,5.822-5.823c3.211,0,5.823,2.612,5.823,5.823v28.189v9.96c0,0.829,0.672,1.5,1.5,1.5
				s1.5-0.671,1.5-1.5v-9.96c0-3.211,2.612-5.823,5.823-5.823c3.21,0,5.822,2.612,5.822,5.823v3.192v9.358
				c0,0.829,0.672,1.5,1.5,1.5s1.5-0.671,1.5-1.5v-9.358c0-1.575,0.619-3.051,1.743-4.155c1.125-1.104,2.608-1.683,4.19-1.667
				c3.15,0.058,5.713,2.778,5.713,6.065v3.33v9.189c0,0.829,0.672,1.5,1.5,1.5s1.5-0.671,1.5-1.5v-9.189
				c0-3.21,2.612-5.823,5.822-5.823c3.211,0,5.823,2.612,5.823,5.823v25.887c0,3.794-1.012,7.53-2.926,10.805l-3.711,6.35
				c-0.135,0.229-0.205,0.491-0.205,0.757v6.406H143.548z M228.385,222.852h-33.096v-5.724h5.866c0.828,0,1.5-0.671,1.5-1.5
				s-0.672-1.5-1.5-1.5h-4.274l1.914-3.275c0.463-0.792,0.87-1.613,1.239-2.448h23.932h21.08l-2.142,4.925
				c-0.118,0.272-0.25,0.535-0.382,0.798h-31.098c-0.828,0-1.5,0.671-1.5,1.5s0.672,1.5,1.5,1.5h29.141
				C237.605,220.695,233.172,222.852,228.385,222.852z"/>
			<path fill="#3F3679" d="M65.22,214.128H54.845c-0.828,0-1.5,0.671-1.5,1.5s0.672,1.5,1.5,1.5H65.22c0.828,0,1.5-0.671,1.5-1.5
				S66.048,214.128,65.22,214.128z"/>
			<path fill="#3F3679" d="M27.323,233.825H9.32c-0.828,0-1.5,0.671-1.5,1.5s0.672,1.5,1.5,1.5h18.003c0.828,0,1.5-0.671,1.5-1.5
				S28.151,233.825,27.323,233.825z"/>
			<path fill="#3F3679" d="M246.68,233.825h-18.003c-0.828,0-1.5,0.671-1.5,1.5s0.672,1.5,1.5,1.5h18.003c0.828,0,1.5-0.671,1.5-1.5
				S247.508,233.825,246.68,233.825z"/>
			<path fill="#3F3679" d="M218.479,233.825H37.521c-0.828,0-1.5,0.671-1.5,1.5s0.672,1.5,1.5,1.5h180.959
				c0.828,0,1.5-0.671,1.5-1.5S219.308,233.825,218.479,233.825z"/>
			<path fill="#3F3679" d="M28.889,76.605H39.16v4.125c0,0.829,0.672,1.5,1.5,1.5h4.001v16.096c0,0.829,0.672,1.5,1.5,1.5h8.682
				c0.828,0,1.5-0.671,1.5-1.5V82.23h3.649l23.058,12.1v-0.008c0.209,0.111,0.444,0.179,0.697,0.179h9.356
				c0.828,0,1.5-0.671,1.5-1.5V80.88c5.637-0.739,10.006-5.562,10.006-11.397s-4.369-10.658-10.006-11.397V45.956
				c0-0.829-0.672-1.5-1.5-1.5h-9.356c-0.253,0-0.488,0.069-0.697,0.179v-0.008L59.974,56.737H40.66c-0.828,0-1.5,0.671-1.5,1.5
				v4.116H28.889c-0.828,0-1.5,0.671-1.5,1.5v11.252C27.389,75.934,28.061,76.605,28.889,76.605z M101.609,69.484
				c0,4.177-3.03,7.654-7.006,8.365v-16.73C98.58,61.83,101.609,65.306,101.609,69.484z M85.247,47.456h6.356v44.047h-6.356V47.456z
				 M53.343,96.827h-5.682V82.23h5.682V96.827z M82.247,90.521L61.844,79.814V59.144l20.403-10.707V90.521z M42.16,59.737h16.684
				V79.23h-4.001h-8.682H42.16v-4.125V63.853V59.737z M30.389,65.353h8.771v8.252h-8.771V65.353z"/>
		</g>
	</g>
</g>
</svg>
